<?xml version="1.0" encoding="UTF-8" standalone="no"?><svg xmlns="http://www.w3.org/2000/svg" xmlns:xlink="http://www.w3.org/1999/xlink" fill="#000000" height="80" preserveAspectRatio="xMidYMid meet" version="1" viewBox="-1.0 -0.10 400.0 120.0" width="10.0" zoomAndPan="magnify"><g id="change1_1"><path d="M276.8958,40.7291c0.012-2.6404-0.6973-5.3611-1.1589-7.9521c-0.0195-0.1084-0.0337-0.1816-0.0459-0.2428 c0.0005-0.0195,0.002-0.0294,0.001-0.0637c-0.0181-0.7181-0.1123-1.4433-0.1682-2.1591c-0.1218-1.5608-0.2097-3.1285-0.3655-4.6863 c-0.4937-4.9315-1.3276-9.8469-2.0671-14.7457c-0.1243-0.8228-0.6663-1.209-1.2817-1.2595 c-0.0269-0.2439-0.0544-0.4878-0.0813-0.7317c-0.2642-2.4054-0.521-4.8116-0.7815-7.2173c-0.2397-2.2156-3.7424-2.2401-3.5,0 c0.655,6.0524,1.1819,12.1263,2.2241,18.1257c0.1633,0.9414,0.3269,1.8829,0.4905,2.8243c0.0168,0.0969,0.032,0.1951,0.0508,0.2927 c-0.0015,0.1137,0.0068,0.3576,0,0.4654c-0.1262,1.9553-0.0559,3.9424-0.0835,5.9019c-0.0374,2.6215-0.0186,5.2574,0.0598,7.8776 c0.0891,2.9738,0.3896,5.9242,0.1992,8.8953c-0.2087,3.2579-0.3384,6.451-0.3425,9.7145c-0.0037,3.1509-0.4712,6.1754-0.8916,9.3019 c-0.0098,0.0724-0.0303,0.1997-0.0476,0.3019c-0.01,0.0671-0.0203,0.1342-0.0313,0.201c-0.1633,0.9974-0.3118,1.9974-0.4678,2.9959 c-0.2021,1.2953-0.4016,2.5911-0.6082,3.8857c-1.0049,6.3026-1.9707,12.5955-3.2852,18.8413 c-0.6067,2.882-1.5168,5.6782-2.3115,8.5132c-0.7156,2.5531-1.3201,5.1409-2.0984,7.6758c-0.9187,2.9921-1.8352,5.9835-2.7908,8.964 c-0.3096,0.9656-0.6191,1.9313-0.9287,2.8969c-0.0874,0.2725-0.2017,0.5488-0.2654,0.8279 c-0.0105,0.0463-0.0129,0.0657-0.0178,0.0931c-0.7427,1.7109-1.4739,3.4271-2.2109,5.1405 c-1.0959,2.5487-2.033,5.1989-3.2222,7.7049c-0.0298,0.0419-0.1387,0.2376-0.1956,0.327c-0.2163,0.3397-0.3948,0.7112-0.5903,1.0633 c-0.5537,0.9974-1.1074,1.9949-1.6611,2.9924c-0.5251,0.9458-1.0425,1.8815-1.5134,2.8544 c-0.8347,1.7234-1.5938,3.5146-2.5151,5.1932c-0.6516,1.1871-1.5518,2.2747-2.3311,3.3821 c-1.8308,2.6027-3.4302,5.2858-5.0549,8.0252c-1.3679,2.3064-3.1018,4.4139-4.6746,6.584c-1.02,1.4078-2.0388,2.8164-3.0583,4.2246 c-0.2808,0.3879-0.5601,0.7773-0.8428,1.1641c-0.0544,0.0649-0.2341,0.2923-0.3113,0.3788 c-0.2925,0.3284-0.5737,0.6678-0.8601,1.0013c-2.198,2.5585-4.4043,4.9648-6.7932,7.3446c-2.156,2.1478-4.1335,4.4786-6.3076,6.6035 c-1.8625,1.8201-4.0847,3.3378-6.1077,4.9833c-1.4988,1.219-3.0056,2.4289-4.4966,3.6572c-0.1609,0.1325-0.8206,0.6108-0.082,0.0798 c-0.1426,0.1025-0.2842,0.2068-0.428,0.3077c-0.8423,0.5914-1.6716,1.2021-2.5071,1.8029c-0.666,0.4789-1.342,0.9431-2.0107,1.4178 c-0.3079,0.126-0.7998,0.3469-0.9292,0.3934c-0.9917,0.3571-1.9834,0.7141-2.9749,1.0712 c-2.7813,1.0014-5.5898,1.4805-8.4946,2.0525c-0.9961,0.1961-1.9912,0.3975-2.9866,0.5976 c-0.9905,0.1992-1.981,0.3984-2.9714,0.5977c-0.3562,0.0717-0.7139,0.1381-1.0691,0.215c-0.054,0.0117-0.1899,0.0338-0.3054,0.0533 c-0.0933,0.0042-0.1919,0.0091-0.2305,0.0096c-0.3481,0.0051-0.6968,0.0268-1.0449,0.0402 c-1.0532,0.0405-2.1064,0.0809-3.1597,0.1214c-1.0002,0.0385-1.9934,0.1068-2.9927,0.0525 c-1.8608-0.1012-3.7214-0.2023-5.5823-0.3035c-0.3108-0.0168-0.6243-0.0475-0.9355-0.0508c-0.033-0.0004-0.0552-0.0013-0.0815-0.002 c-0.5168-0.127-1.0359-0.2465-1.5535-0.3698c-1.7366-0.4133-3.5186-1.0087-5.2856-1.258c-0.0972-0.0137-0.1543-0.0175-0.1909-0.0165 c-0.0503-0.0258-0.1104-0.0554-0.2034-0.0975c-0.8152-0.3692-1.6333-0.7318-2.45-1.0977c-1.3118-0.5878-2.7512-1.0783-3.9995-1.7922 c-0.0476-0.0272-0.0928-0.0604-0.1401-0.0883c0.2302-0.7022,0.4597-1.4039,0.6934-2.101c0.7874-2.3492,1.7661-4.7189,2.2813-7.1445 c0.2168-1.0208,0.4121-2.0512,0.6208-3.0784c0.1133-0.3438,0.2263-0.6872,0.3396-1.0318c0.5757-1.751,1.0664-3.5383,1.5227-5.3304 c0.6555-1.8135,1.25-3.5967,1.5161-5.5497c0.3718-2.7307,0.7361-5.4203,0.9124-8.1691c0.0205-0.3171,0.0471-0.6318,0.0686-0.9484 c0.178-0.9158,0.3572-1.8368,0.4392-2.7572c0.1677-1.8811,0.2554-3.8378,0.2539-5.7585c0.1602-2.2626,0.1589-4.4647,0.116-6.7735 c-0.0894-4.7942-1.5322-9.319-3.1248-13.7891c-0.1772-0.6385-0.354-1.2774-0.5576-1.9054c-0.2068-0.6371-0.6218-1.223-1.0703-1.7793 c-0.9695-1.5591-2.2302-3.0122-3.2749-4.4343c-0.7344-1-1.8208-1.2391-2.9448-1.6501c-0.2063-0.0755-0.4141-0.1589-0.6211-0.2393 c-0.2073-0.0834-0.4097-0.167-0.5967-0.2536c-1.1675-0.5405-3.0391-1.8422-4.3809-1.5801 c-1.2935,0.2526-2.6199,0.9227-3.8611,1.3597c-1.1594,0.4084-2.8508,0.7025-3.8081,1.5275 c-1.0896,0.9388-1.9934,2.2554-2.9451,3.3318c-0.7578,0.8577-1.7129,1.7095-2.2976,2.7016 c-0.8196,1.3904-1.418,2.9681-2.1135,4.4241c-1.2212,2.5565-2.1067,5.1688-3.0369,7.8481 c-1.7688,5.0949-2.1331,10.7426-2.7502,16.0739c-0.2976,2.5733,0.033,5.2952,0.1401,7.879c0.105,2.5353,0.1821,5.1346,0.4841,7.6532 c0.1497,1.2477,0.7732,2.4829,1.1941,3.6587c0.467,1.3051,0.8916,2.6358,1.416,3.919c0.5073,1.241,1.0967,2.4533,1.6462,3.6759 c0.4753,1.0577,0.865,2.2584,1.4744,3.2458c0.7954,1.2894,1.8982,2.4664,2.8215,3.6661c0.6692,0.8694,1.301,1.8072,2.0505,2.609 c1.7644,1.887,3.689,4.0642,5.8347,5.5177c1.4661,0.9932,2.9329,2.0289,4.4456,2.9745c-1.4336,2.8181-2.8325,5.6482-4.1438,8.5393 c-0.4084,0.9006-0.7917,1.822-1.1816,2.7408c-0.7788,1.4377-1.5547,2.8764-2.302,4.326c-0.3923,0.7612-0.771,1.5297-1.1514,2.2973 c-0.5964,0.9529-1.2063,1.898-1.792,2.845c-1.9976,3.2305-3.9788,6.4644-5.9536,9.7065c-0.9375,1.4227-1.8687,2.8497-2.7874,4.2847 c-0.7009,0.9575-1.4263,1.8994-2.1169,2.8527c-0.1506,0.2081-0.3013,0.4167-0.4524,0.6248 c0.0615-0.1028-0.4429,0.5151-0.5845,0.6783c-0.9968,1.1479-1.9937,2.2959-2.9905,3.4438c-1.4324,1.6495-2.6992,3.413-4.0029,5.1663 c-0.3975,0.5342-0.7947,1.0685-1.1919,1.6027c-0.0222,0.0297-0.0447,0.0593-0.0664,0.0892 c-0.0813,0.0895-0.1624,0.1786-0.2437,0.2682c-0.9531,0.7454-1.8027,1.7047-2.6812,2.5311 c-1.6826,1.5831-3.2954,3.2429-4.9358,4.8715c-1.4407,1.1375-2.9001,2.2589-4.2585,3.4908 c-1.1079,1.0045-2.2158,2.0091-3.3237,3.0137c-0.3596,0.3262-0.7495,0.6387-1.0894,0.9868 c-0.0889,0.0571-0.1772,0.1149-0.2676,0.1689c-3.9111,2.3378-7.6152,4.9711-11.4038,7.4949 c-1.9185,1.2781-3.834,2.6802-5.844,3.8067c-1.949,1.092-4.0967,1.8752-6.1084,2.8489c-1.9854,0.9609-3.8525,2.2227-5.7517,3.3436 c-0.0664,0.0392-0.3381,0.2054-0.5188,0.3193c-0.1624,0.058-0.7288,0.3143-0.8647,0.3681c-1.4395,0.5705-2.8787,1.141-4.3181,1.7115 c-2.0149,0.7986-3.9912,1.6857-5.9778,2.5524c-0.5679,0.2477-1.1362,0.4941-1.7034,0.7432 c-0.0605,0.0265-0.1213,0.0522-0.1816,0.0793c-0.0208,0.0037-0.033,0.0051-0.0645,0.0119 c-1.2666,0.2734-2.5259,0.7954-3.7612,1.1844c-3.9546,1.2454-8.009,2.1097-11.9507,3.3928c-2.0583,0.67-4.0356,1.381-6.1648,1.7512 c-2.0957,0.3643-4.1924,0.7239-6.2866,1.0972c-2.1416,0.3818-4.2905,0.7342-6.4247,1.1553 c-1.3937,0.275-2.7853,0.5602-4.1779,0.8403c-0.6072,0.1221-1.2173,0.2349-1.8225,0.3666c-0.0968,0.0211-0.1945,0.0398-0.292,0.0587 c-0.0002,0-0.0002,0-0.0005,0c-2.2711,0.0358-4.5645,0.3313-6.8303,0.4958c-2.2334,0.1621-2.2511,3.6634,0,3.5 c2.5359-0.1841,5.1685-0.1707,7.6749-0.6035c2.5133-0.434,4.9955-1.0464,7.507-1.4941c5.2603-0.9376,10.7231-1.5059,15.8062-3.1604 c5.2345-1.7039,10.5754-2.9803,15.8269-4.634c2.6553-0.8362,5.1501-1.9972,7.7024-3.1107c0.2949-0.1287,0.5908-0.2559,0.885-0.386 c0.0208-0.0092,0.0559-0.0242,0.094-0.0405c0.0676-0.0269,0.1401-0.0557,0.1755-0.0693c0.376-0.145,0.7493-0.2971,1.1238-0.4455 c0.4995-0.1979,0.9985-0.3967,1.498-0.5938c-0.4502,0.3201-0.9009,0.6389-1.3535,0.9518c-0.137,0.0947-0.3047,0.184-0.4287,0.2963 c-0.0078,0.0073-0.0063,0.0085-0.0122,0.0143c-0.3845,0.1539-0.7751,0.2961-1.1609,0.4436 c-1.4314,0.5469-2.8625,1.0938-4.2937,1.6406c-4.0459,1.546-7.9814,3.3359-11.8628,5.2501c-0.6104,0.301-1.2207,0.6021-1.8311,0.903 c-0.342,0.1688-1.1216,0.405-0.3677,0.1999c-1.1805,0.3212-2.345,0.7216-3.5142,1.0814c-2.0173,0.6208-3.9785,1.2714-5.9531,2.0139 c-3.9573,1.488-8.0498,3.2686-12.2217,3.9908c-4.3496,0.753-8.7061,1.4575-13.0582,2.1938 c-2.2804,0.3858-4.559,0.7827-6.8384,1.1741c-2.2155,0.3804-1.2762,3.7538,0.9304,3.3749 c4.8894-0.8395,9.7882-1.6237,14.6771-2.4644c2.535-0.4359,5.1735-0.6828,7.6226-1.4841c2.5127-0.8221,5.0327-1.6108,7.5072-2.5412 c5.0699-1.9064,10.3563-3.2218,15.2118-5.6165c2.428-1.1974,4.8455-2.2944,7.3394-3.3488c0.7004-0.2961,1.4011-0.5923,2.1016-0.8885 c0.1265-0.0535,0.2532-0.1069,0.3796-0.1605c0.0352-0.0118,0.083-0.0283,0.1472-0.0507c1.5847-0.5516,3.1421-1.2006,4.7097-1.7996 c0.9243-0.3532,1.8662-0.6363,2.6826-1.2006c1.4365-0.9932,2.873-1.9864,4.3096-2.9796c2.145-1.4832,4.45-2.725,6.6995-4.0427 c2.1965-1.2867,4.2766-2.7934,6.3948-4.2047c2.0508-1.3667,4.1611-2.675,6.1577-4.119c4.0403-2.922,7.9348-6.228,11.7656-9.4187 c1.9231-1.6017,3.9788-3.1445,5.7407-4.9238c0.624-0.6302,1.2451-1.2643,1.8669-1.8975c3.8987-3.2595,7.2883-7.0021,10.7502-10.733 c1.8154-1.9565,3.481-4.0403,5.1877-6.0921c1.7122-2.0582,2.99-4.4834,4.4304-6.7346c0.2883-0.4504,0.5842-0.8964,0.8757-1.3449 c0.1284-0.1931,0.2534-0.3898,0.3804-0.5841c0.9319-1.4247,1.8721-2.8446,2.8191-4.2581c1.3477-2.0119,2.9185-3.9532,4.0977-6.0666 c1.0591-1.8978,2.0527-3.8384,3.0344-5.7865c0.0925-0.1518,0.187-0.3024,0.2795-0.4543c0.8286-1.3638,1.4841-2.832,2.1172-4.3086 c0.5669-1.1207,1.1394-2.2376,1.7278-3.3437c1.3955-2.6235,2.6692-5.2744,3.8582-7.9651c2.0596,1.1111,4.0947,2.2601,6.3457,2.9197 c2.7236,0.7982,5.2871,1.5934,8.0994,1.9276c2.8413,0.3377,5.5393,0.6056,8.3948,0.632c1.3462,0.0125,2.7817,0.176,4.1172-0.0325 c1.4819-0.2313,2.9563-0.6365,4.4221-0.9521c2.7678-0.5958,5.1858-1.6816,7.8057-2.7793c4.8274-2.0226,9.094-4.905,13.3447-7.9139 c0.1887-0.1335,0.3713-0.2723,0.5593-0.4066c2.0898-0.8976,4.0769-2.1674,6.0378-3.2755c2.093-1.1829,4.2007-2.422,6.2107-3.7407 c2.0176-1.3234,3.9265-2.8282,5.8987-4.2189c2.1226-1.4968,4.541-2.8309,6.4009-4.6542c1.8789-1.8419,3.7039-3.7388,5.717-5.4337 c1.2925-1.0882,2.6418-2.1337,3.8887-3.2739c0.7422-0.6786,1.2625-1.5165,1.8452-2.339c0.9548-1.3477,1.9697-2.67,2.8721-4.0536 c0.002-0.0032,0.0024-0.0038,0.0044-0.0069c0.0889-0.1048,0.1777-0.2095,0.2666-0.3142c0.5444-0.6412,1.0884-1.2825,1.6326-1.9237 c1.7988-2.1196,3.4363-4.2194,5.0283-6.4976c3.072-4.3956,5.9409-8.9128,8.7581-13.4746c1.3689-2.2162,2.3469-4.6151,3.4302-6.9837 c1.0786-2.3584,2.3406-4.6283,3.4973-6.9489c1.1709-2.3491,1.9202-4.9287,2.8718-7.3724c0.8958-2.2998,1.9541-4.5389,2.8242-6.8482 c1.7053-4.5262,3.3613-9.3774,4.4238-14.0977c0.5808-2.5795,1.23-5.2208,1.5032-7.8538c0.1804-1.7398,0.3611-3.4796,0.5415-5.2194 c0.0247-0.2372,0.2627-1.8289,0.0686-0.7856c0.0967-0.5192,0.1877-1.0394,0.2817-1.5591 c0.9626-5.3289,1.7886-10.6503,2.1243-16.0598c0.333-5.3674,0.6379-10.7304,0.7979-16.106 C277.2389,51.3207,276.8722,46.0196,276.8958,40.7291z M164.7254,201.3471C164.5018,201.3392,164.5504,201.3221,164.7254,201.3471 L164.7254,201.3471z M145.1646,192.5136c-0.0308-0.0362-0.0664-0.0782-0.123-0.1484c-1.1172-1.3872-2.5029-2.6215-3.7332-3.9099 c-0.3547-0.3715-0.7122-0.7408-1.0645-1.1149c-0.0037-0.0089-0.0049-0.0123-0.009-0.0222c-0.1306-0.3143-0.3586-0.6242-0.5278-0.919 c-0.927-1.6132-1.854-3.2264-2.781-4.8395c-0.0737-0.1282-0.1472-0.2563-0.2209-0.3845c-0.0005-0.0029-0.0005-0.0037-0.001-0.0067 c-0.1162-0.7607-0.427-1.5385-0.6328-2.2795c-0.4351-1.5672-0.915-3.1292-1.3069-4.7078c-0.3113-1.2536-0.532-2.5364-0.7949-3.8009 c-0.1724-0.8284-0.3447-1.6568-0.5171-2.4852c-0.0339-0.1636-0.0662-0.3293-0.1025-0.4932 c-0.0015-0.0305-0.0024-0.0544-0.0042-0.0944c-0.229-5.6296-1.2224-11.2028-0.949-16.8379 c0.1409-2.8997,0.3083-5.7944,0.4924-8.6917c0.0425-0.6693,0.1487-1.3798,0.1384-2.0561c0.1084-0.22,0.1692-0.4816,0.2507-0.7112 c0.6143-1.7331,1.2285-3.4662,1.843-5.1993c0.0486-0.1371,0.0972-0.2744,0.1458-0.4116c0.0137-0.0171,0.0229-0.0286,0.0408-0.0518 c0.4358-0.5721,0.7561-1.293,1.1184-1.9124c0.6577-1.1243,1.3152-2.2485,1.9727-3.3727c0.8213-0.287,1.6423-0.5739,2.4636-0.8609 c0.7295-0.255,1.4592-0.51,2.1887-0.765c0.1257-0.0439,0.2598-0.0833,0.3918-0.1264c-0.115-0.0192-0.2271-0.0766-0.3088-0.2167 c0.0398,0.0683,0.1946,0.1337,0.3738,0.1918c0.0793-0.0276,0.1604-0.0533,0.2329-0.0897c0.1458-0.0732,0.2063-0.0851,0.2261-0.0748 c0.0044,0.002,0.0085,0.004,0.0129,0.006c-0.0049,0.0419-0.1831,0.1596-0.3877,0.1849c0.2373,0.0715,0.4937,0.1297,0.585,0.1631 c0.7202,0.2634,1.4407,0.5269,2.1611,0.7903c0.1816,0.0664,0.3633,0.1329,0.5449,0.1993c0.6506,0.301,1.3022,0.6002,1.9458,0.9149 c0.0901,0.144,0.2217,0.2794,0.3232,0.4095c0.4795,0.6137,0.959,1.2275,1.4385,1.8412c0.1123,0.144,0.2244,0.3061,0.3364,0.4628 c0.1426,0.2011,0.2844,0.4031,0.4292,0.6022c0.3477,0.503,0.709,1.0044,1.0999,1.4479c0.0256,0.0321,0.0496,0.0662,0.0754,0.0981 c0.0398,0.1113,0.0803,0.2224,0.1204,0.3336c0.1387,0.3839,0.2776,0.7678,0.4163,1.1517c0.0806,0.2742,0.1624,0.5481,0.2397,0.8222 c0.3713,1.3157,0.7778,2.6268,1.1152,3.9516c0.54,2.1205,0.8279,4.3271,1.2253,6.4792c0.0579,0.3127,0.0974,1.2598,0.0842,0.3581 c0.0063,0.4332,0.0435,0.8683,0.0652,1.301c0.0776,1.5523,0.1555,3.1046,0.2332,4.6569c0.0664,1.3245,0.0269,2.6514-0.0286,3.9778 c-0.094,0.8073-0.1921,1.6135-0.2717,2.415c-0.1392,1.4003-0.2324,2.8042-0.3193,4.2086c-0.1038,0.6132-0.2119,1.2257-0.3179,1.8384 c-0.3662,2.1173-0.6587,4.2341-0.9429,6.3643c-0.1379,1.0333-0.2339,2.0903-0.4106,3.1215 c-0.0327,0.0659-0.1619,0.5682-0.2031,0.7252c-0.1846,0.6999-0.3689,1.3998-0.5535,2.0996 c-0.022,0.0836-0.0449,0.1659-0.0671,0.2494c-0.0007,0.0022-0.0015,0.0042-0.0022,0.0063c-0.6995,1.952-1.2117,3.749-1.6472,5.7631 c-0.0012,0.0035-0.0022,0.0071-0.0034,0.0106c-0.6748,2.0529-1.3904,4.0872-1.9324,6.179 c-0.3889,1.5016-0.7146,3.0432-1.1497,4.5423c-0.0789,0.2342-0.155,0.4695-0.2349,0.7034 c-0.1401-0.1036-0.2803-0.2107-0.4209-0.3105c-0.6807-0.4833-1.3616-0.9666-2.0422-1.4498 C145.3778,192.6648,145.2713,192.5889,145.1646,192.5136z M133.3568,167.551C133.3595,167.5932,133.3595,167.603,133.3568,167.551 L133.3568,167.551z M143.4027,199.9082c-0.7488-0.4944-1.4885-1.009-2.2493-1.4849c-0.0325-0.0203-0.064-0.0428-0.0962-0.0636 c0.0464,0.0115-0.343-0.304-0.4683-0.4271c-1.3684-1.3437-2.7366-2.6874-4.1047-4.0311c-0.1931-0.1897-0.3796-0.3928-0.5828-0.5721 c-0.0166-0.0146,0.0054,0.0176,0.0388,0.063c-0.5327-0.6882-1.0618-1.3795-1.5925-2.0692c-0.8818-1.1459-1.988-2.2883-2.7085-3.5424 c-0.8657-1.5071-1.4624-3.2542-2.1743-4.8384c-0.228-0.5073-0.46-1.0132-0.6841-1.5225c-0.0144-0.0427-0.0317-0.095-0.0569-0.1707 c-0.124-0.375-0.2668-0.7453-0.3999-1.1172c-0.3501-0.9784-0.7002-1.9568-1.0505-2.9352c-0.2581-0.7213-0.4385-1.6804-0.8381-2.3417 c-0.0007-0.0013-0.001-0.001-0.0017-0.0023c-0.0115-0.2533-0.0361-0.5082-0.0525-0.7592c-0.0718-1.1132-0.1438-2.2263-0.2156-3.3394 c-0.2034-3.1519-0.2996-6.3013-0.4023-9.4584c-0.0391-1.1946,0.1399-2.3466,0.2776-3.536c0.1213-1.0491,0.2427-2.0981,0.364-3.1472 c0.0405-0.3489,0.083-0.6977,0.1213-1.0469c0.0078-0.072,0.0173-0.1379,0.0269-0.1992c-0.0061,0.0288-0.0105,0.0504-0.0183,0.0848 c0.0081-0.0359,0.0142-0.0722,0.022-0.1082c0.0259-0.1605,0.0498-0.2594,0.0452-0.2214c0.572-2.7233,0.7693-5.5353,1.6838-8.1699 c0.324-0.933,0.6797-1.8653,1.0205-2.8022c-0.0964,1.5507-0.1494,3.1094-0.2312,4.6489c-0.1321,2.4893-0.4744,5.0736-0.26,7.561 c0.2212,2.571,0.4565,5.1409,0.646,7.7145c0.1948,2.6494,0.3062,5.2601,0.8472,7.8607c0.5342,2.5662,1.0596,5.0988,1.7603,7.6226 c0.4265,1.5365,0.7698,3.129,1.2876,4.6374c0.3403,0.9916,0.988,1.8973,1.5076,2.8013c0.7942,1.3824,1.5198,2.8444,2.3989,4.1749 c0.5764,0.8724,1.4167,1.5975,2.135,2.3499c1.1001,1.1519,2.1511,2.4031,3.324,3.481c0.7708,0.7085,1.7134,1.2697,2.5649,1.8742 c0.4758,0.3378,0.949,0.6946,1.4238,1.0513c-0.2205,0.585-0.4407,1.17-0.6609,1.755c-0.188,0.4991-0.3962,0.9952-0.5652,1.501 c-0.0012,0.0037-0.001,0.0035-0.0022,0.007c-0.0051,0.0098-0.0098,0.0198-0.0151,0.0296 C144.7774,200.7979,144.0904,200.3623,143.4027,199.9082z M186.0926,204.2528c-0.0291,0.0181-0.0388,0.0266-0.0442,0.0327 c-0.0098,0.0041-0.0127,0.0051-0.0232,0.0095c-1.7773,0.7458-3.5557,1.4897-5.3335,2.2346c-1.1125,0.4662-2.28,0.6467-3.4604,0.9008 c-1.0093,0.2173-2.0186,0.4346-3.0278,0.6519c-0.2864,0.0616-0.5886,0.1074-0.8738,0.1854c-0.0156-0.0027-0.02-0.0051-0.0391-0.0079 c-1.8574-0.2652-3.916-0.0362-5.7937-0.0535c-1.1277-0.0104-2.2227-0.1627-3.3445-0.296c-1.0574-0.1256-2.1147-0.2513-3.1721-0.377 c-0.4089-0.0486-0.8179-0.0995-1.2271-0.1458c-0.4988-0.0564-0.2407-0.1208,0.0286,0.0003 c-1.5952-0.7178-3.5173-1.0308-5.1958-1.5228c-0.4998-0.1464-0.9988-0.2959-1.4993-0.4393 c0.3367,0.1038,0.1609,0.0827-0.0417-0.0123c-0.0571-0.0163-0.1138-0.034-0.1709-0.05c0.0693,0.0195,0.1213,0.035,0.1707,0.0499 c-0.0298-0.014-0.0601-0.0289-0.0894-0.046c-0.3772-0.2184-0.7766-0.4054-1.1631-0.6071c-1.1072-0.578-2.1824-1.1605-3.2471-1.7537 c0.2588-0.5223,0.5051-1.0492,0.718-1.5877c0.188-0.476,0.365-0.9579,0.5398-1.441c0.7026,0.347,1.4529,0.629,2.1597,0.9457 c1.4026,0.6284,2.7939,1.296,4.2124,1.8875c1.0437,0.4351,2.198,0.6117,3.2959,0.873c1.4807,0.3524,2.9641,0.7836,4.4604,1.0616 c1.1238,0.2088,2.3105,0.1802,3.4485,0.2421c2.7075,0.1472,5.3008,0.2289,8.0066,0.1249c1.3586-0.0522,2.7712,0.0035,4.1179-0.2042 c1.3877-0.214,2.7671-0.5565,4.1433-0.8333c1.4658-0.2948,2.9329-0.5825,4.3997-0.8726c-0.4219,0.2267-0.8438,0.4534-1.2659,0.6802 C186.5536,204.0051,186.3123,204.1159,186.0926,204.2528z M273.4395,61.3795c-0.2332,5.4145-0.4185,10.9182-1.0869,16.2966 c-0.2002,1.6091-0.3911,3.2197-0.6001,4.8277c-0.0042,0.015-0.0059,0.0184-0.0107,0.0378c-0.0681,0.2621-0.0977,0.5405-0.146,0.8068 c-0.179,0.9913-0.3582,1.9825-0.5371,2.9738c-0.5334,2.9517-0.8618,5.8755-1.1716,8.861c-0.0544,0.5259-0.1091,1.0518-0.1636,1.5778 c-0.0056,0.0194-0.009,0.0298-0.0159,0.0555c-0.0972,0.3549-0.1489,0.7277-0.2227,1.0883 c-0.3647,1.7827-0.6956,3.5762-1.0952,5.3515c-0.5513,2.4501-1.363,4.8915-2.1211,7.2861 c-1.666,5.2635-3.8433,10.2692-5.7942,15.4228c-0.5637,1.4891-1.1074,2.9881-1.6912,4.4697 c-0.0107,0.0173-0.0168,0.0264-0.0303,0.049c-0.1497,0.2484-0.2676,0.523-0.3994,0.7808c-0.4653,0.9108-0.9312,1.8216-1.3965,2.7324 c-1.3416,2.6241-2.5623,5.2877-3.7881,7.9685c-1.1455,2.5042-2.7454,4.8051-4.2087,7.1341 c-1.323,2.1054-2.6812,4.2011-4.0757,6.2597c-0.9094,1.3423-1.8586,2.6592-2.7874,3.9882c-0.3911,0.5596-0.8076,1.11-1.1775,1.6845 c-0.1467,0.1705-0.2913,0.3433-0.4368,0.5148c-1.9197,2.2618-3.8604,4.47-5.5752,6.8902c-0.9138,1.2897-1.7695,2.6683-2.7568,3.9066 c0.1821-0.271-0.5386,0.4163-0.7705,0.6115c-0.7869,0.6626-1.5737,1.3251-2.3608,1.9877c-2.2744,1.915-4.3628,3.9579-6.488,6.0411 c-0.2085,0.2045-0.4556,0.4014-0.6411,0.6286c-0.0205,0.025-0.0298,0.0376-0.0442,0.056c-0.4136,0.3033-0.8384,0.5928-1.2617,0.8836 c1.1196-1.1639,2.2466-2.32,3.394-3.4632c3.9568-3.9418,7.3538-8.2331,10.6243-12.7505c1.5505-2.142,3.1228-4.2691,4.6577-6.4222 c1.457-2.0435,2.5315-4.3506,3.8884-6.4608c1.3066-2.0321,2.9609-3.8753,4.1763-5.9617c1.2603-2.1639,2.1123-4.5715,3.3086-6.7744 c1.2937-2.3823,2.76-4.684,3.8071-7.1871c0.6841-1.6358,1.3684-3.2716,2.0527-4.9074c0.063-0.1506,0.126-0.3012,0.189-0.4518 c0.2625-0.6039,0.5203-1.2097,0.7803-1.8146c1.1228-2.6108,2.1968-5.1484,3.0635-7.852c0.8457-2.6373,1.6741-5.2773,2.4871-7.9249 c1.5947-5.1939,2.9424-10.4634,4.446-15.6854c1.3901-4.8284,2.0518-9.9059,2.8474-14.8567 c0.8142-5.0667,1.697-10.1332,2.3801-15.2194c0.3555-2.6489,0.8535-5.2845,0.8567-7.959c0.002-1.5596,0.0061-3.1094,0.0383-4.6592 c0.021,0.538,0.0425,1.076,0.0564,1.6144C273.7032,56.3254,273.5475,58.8714,273.4395,61.3795z" fill="#1b1970"/></g></svg>